<svg xmlns="http://www.w3.org/2000/svg" width="72" height="71" viewBox="0 0 72 71"><defs><linearGradient id="xwy8a" x1="39.16" x2="38.8" y1="37.27" y2="39.28" gradientUnits="userSpaceOnUse"><stop offset="0" stop-color="#7bc2ff"/><stop offset="1" stop-color="#5b6ceb"/></linearGradient><linearGradient id="xwy8b" x1="36.22" x2="35.67" y1="32.62" y2="44.69" gradientUnits="userSpaceOnUse"><stop offset="0" stop-color="#7bc2ff"/><stop offset="1" stop-color="#5b6ceb"/></linearGradient><linearGradient id="xwy8c" x1="39.16" x2="38.8" y1="36.09" y2="38.1" gradientUnits="userSpaceOnUse"><stop offset="0" stop-color="#7bc2ff"/><stop offset="1" stop-color="#5b6ceb"/></linearGradient><linearGradient id="xwy8d" x1="39.16" x2="38.8" y1="34.92" y2="36.93" gradientUnits="userSpaceOnUse"><stop offset="0" stop-color="#7bc2ff"/><stop offset="1" stop-color="#5b6ceb"/></linearGradient><linearGradient id="xwy8e" x1="33.09" x2="32.72" y1="34.92" y2="36.93" gradientUnits="userSpaceOnUse"><stop offset="0" stop-color="#7bc2ff"/><stop offset="1" stop-color="#5b6ceb"/></linearGradient><linearGradient id="xwy8f" x1="39.16" x2="38.8" y1="38.43" y2="40.44" gradientUnits="userSpaceOnUse"><stop offset="0" stop-color="#7bc2ff"/><stop offset="1" stop-color="#5b6ceb"/></linearGradient><linearGradient id="xwy8g" x1="33.09" x2="32.72" y1="36.09" y2="38.1" gradientUnits="userSpaceOnUse"><stop offset="0" stop-color="#7bc2ff"/><stop offset="1" stop-color="#5b6ceb"/></linearGradient><linearGradient id="xwy8h" x1="33.09" x2="32.72" y1="38.43" y2="40.44" gradientUnits="userSpaceOnUse"><stop offset="0" stop-color="#7bc2ff"/><stop offset="1" stop-color="#5b6ceb"/></linearGradient><linearGradient id="xwy8i" x1="33.09" x2="32.72" y1="37.27" y2="39.28" gradientUnits="userSpaceOnUse"><stop offset="0" stop-color="#7bc2ff"/><stop offset="1" stop-color="#5b6ceb"/></linearGradient><linearGradient id="xwy8j" x1="30" x2="30.38" y1=".87" y2="70.28" gradientUnits="userSpaceOnUse"><stop offset="0" stop-color="#7bc2ff"/><stop offset="1" stop-color="#5b6ceb"/></linearGradient><linearGradient id="xwy8k" x1="47.01" x2="47.89" y1="26.47" y2="70.28" gradientUnits="userSpaceOnUse"><stop offset="0" stop-color="#7bc2ff"/><stop offset="1" stop-color="#5b6ceb"/></linearGradient></defs><g><g><g><path fill="url(#xwy8a)" d="M37.164 39.281c.944-.78 2.223-1.386 3.637-1.726v-.283c-1.394.329-2.666.913-3.637 1.666z"/></g><g><path fill="url(#xwy8b)" d="M42.667 32.62v9.63c-2.787 0-5.28.967-6.724 2.437-1.441-1.47-3.936-2.437-6.723-2.437v-9.63c2.787 0 5.282.968 6.723 2.437 1.443-1.47 3.937-2.437 6.724-2.437zm-6.875 10.914c-2.47-2.41-5.539-2.564-5.808-2.57v.545c2.229.135 4.324.868 5.808 2.025zm.006-.378c-2.293-2.552-5.24-2.976-5.814-3.036v.566c.255.007 3.292.146 5.814 2.47zm.007-7.15l-.407-.414c-1.191-1.213-3.21-2.025-5.414-2.18v6.43c.529.05 3.46.442 5.821 2.91zm6.098 4.957c-.269.007-3.338.16-5.806 2.57 1.482-1.156 3.577-1.89 5.806-2.024zm0-.843c-.574.06-3.522.484-5.813 3.036 2.521-2.324 5.558-2.463 5.813-2.47zm0-6.709c-2.204.156-4.223.968-5.414 2.181l-.407.415v6.745c2.361-2.468 5.292-2.86 5.821-2.91z"/></g><g><path fill="url(#xwy8c)" d="M37.164 38.1c.944-.78 2.223-1.386 3.637-1.726v-.283c-1.394.328-2.666.914-3.637 1.667z"/></g><g><path fill="url(#xwy8d)" d="M37.164 36.927c.944-.78 2.223-1.386 3.637-1.726v-.283c-1.394.328-2.666.913-3.637 1.667z"/></g><g><path fill="url(#xwy8e)" d="M31.087 35.201c1.413.34 2.692.946 3.636 1.726v-.342c-.97-.754-2.243-1.338-3.636-1.667z"/></g><g><path fill="url(#xwy8f)" d="M37.164 40.44c.944-.78 2.223-1.386 3.637-1.725v-.284c-1.394.328-2.666.914-3.637 1.667z"/></g><g><path fill="url(#xwy8g)" d="M31.087 36.372c1.413.34 2.692.947 3.636 1.727v-.343c-.97-.752-2.242-1.337-3.636-1.666z"/></g><g><path fill="url(#xwy8h)" d="M31.087 38.713c1.413.34 2.692.946 3.636 1.726v-.342c-.97-.754-2.243-1.338-3.636-1.667z"/></g><g><path fill="url(#xwy8i)" d="M31.087 37.555c1.413.34 2.692.947 3.636 1.726v-.343c-.97-.753-2.242-1.336-3.636-1.666z"/></g><g><path fill="url(#xwy8j)" d="M24.439 70.284c3.231 0 6.313-.635 9.136-1.773a24.387 24.387 0 0 1-1.618-1.207c-5.522-4.48-9.05-11.32-9.05-18.986 0-.766.035-1.524.104-2.27v-.203c0-9.337 5.235-17.452 12.932-21.567 7.698 4.115 12.934 12.23 12.934 21.567 0 .203 0 .136-.001.202 6.305-3.94 10.684-10.674 11.402-18.47.068-.748.103-1.505.103-2.27v-.202C60.273 11.7 49.373.868 35.943.868 23.27.868 12.852 10.52 11.63 22.874a24.374 24.374 0 0 1 10.933-2.576c4.93 0 9.518 1.458 13.357 3.968a24.325 24.325 0 0 0-11.482-2.86 24.329 24.329 0 0 0-12.932 3.698v.001C4.596 29.423 0 37.097 0 45.845c0 13.497 10.941 24.44 24.439 24.44z"/></g><g><path fill="url(#xwy8k)" d="M23.01 46.047c.07 8.476 4.452 15.924 11.061 20.255.606.396 1.23.767 1.872 1.11l-.082.041.082-.041a24.338 24.338 0 0 0 11.506 2.872c13.497 0 24.438-10.942 24.438-24.44 0-7.892-3.748-14.901-9.555-19.37a24.347 24.347 0 0 1-.325 2.29c-1.449 7.593-6.41 13.94-13.131 17.283a24.314 24.314 0 0 1-12.933 3.699c-4.749 0-9.18-1.355-12.932-3.699z"/></g></g></g></svg>