<svg xmlns="http://www.w3.org/2000/svg" width="74" height="74" viewBox="0 0 74 74"><defs><linearGradient id="lg75a" x1="37" x2="36.19" y1=".81" y2="74" gradientUnits="userSpaceOnUse"><stop offset="0" stop-color="#ffb871"/><stop offset="1" stop-color="#ff7334"/></linearGradient><linearGradient id="lg75b" x1="27.86" x2="27.88" y1="13.68" y2="43.69" gradientUnits="userSpaceOnUse"><stop offset="0" stop-color="#ffb871"/><stop offset="1" stop-color="#ff7334"/></linearGradient></defs><g><g><g><path fill="url(#lg75a)" d="M71.309 63.02c2.505 2.509 2.505 6.59 0 9.099-2.518 2.51-6.594 2.503-9.1.001L45.55 55.456l3.032-3.032-2.594-2.594c-4.878 4.184-11.199 6.73-18.113 6.73C12.504 56.56 0 44.055 0 28.685 0 13.316 12.504.811 27.874.811s27.874 12.505 27.874 27.874c0 6.915-2.545 13.235-6.73 18.113l2.595 2.594 3.032-3.032zM47.171 28.686c0-10.64-8.656-19.297-19.297-19.297S8.577 18.044 8.577 28.685s8.656 19.298 19.297 19.298 19.297-8.657 19.297-19.298z"/></g><g><path fill="url(#lg75b)" d="M42.883 28.685c0 8.275-6.734 15.01-15.009 15.01s-15.01-6.735-15.01-15.01c0-8.275 6.735-15.009 15.01-15.009 8.275 0 15.01 6.734 15.01 15.01zm-4.917-2.772l-3.031-3.032-9.205 9.205-4.917-4.917-3.031 3.032 7.948 7.949z"/></g></g></g></svg>