<svg xmlns="http://www.w3.org/2000/svg" width="65" height="74" viewBox="0 0 65 74"><defs><linearGradient id="5kjda" x1="51.58" x2="52.24" y1="12.98" y2="17.3" gradientUnits="userSpaceOnUse"><stop offset="0" stop-color="#78d062"/><stop offset="1" stop-color="#36b754"/></linearGradient><linearGradient id="5kjdb" x1="28.95" x2="29.44" y1="0" y2="8.65" gradientUnits="userSpaceOnUse"><stop offset="0" stop-color="#78d062"/><stop offset="1" stop-color="#36b754"/></linearGradient><linearGradient id="5kjdc" x1="44.09" x2="44.58" y1="0" y2="8.65" gradientUnits="userSpaceOnUse"><stop offset="0" stop-color="#78d062"/><stop offset="1" stop-color="#36b754"/></linearGradient><linearGradient id="5kjdd" x1="21.3" x2="21.96" y1="12.98" y2="17.3" gradientUnits="userSpaceOnUse"><stop offset="0" stop-color="#78d062"/><stop offset="1" stop-color="#36b754"/></linearGradient><linearGradient id="5kjde" x1="6" x2="6.98" y1="34.75" y2="73.68" gradientUnits="userSpaceOnUse"><stop offset="0" stop-color="#78d062"/><stop offset="1" stop-color="#36b754"/></linearGradient><linearGradient id="5kjdf" x1="41.3" x2="40.89" y1="13.12" y2="73.68" gradientUnits="userSpaceOnUse"><stop offset="0" stop-color="#78d062"/><stop offset="1" stop-color="#36b754"/></linearGradient></defs><g><g><g><g><g><path fill="url(#5kjda)" d="M54.073 12.976h-4.326a2.162 2.162 0 1 0 0 4.326h4.326a2.162 2.162 0 1 0 0-4.326z"/></g></g></g><g><g><g><path fill="url(#5kjdb)" d="M32.216 5.52l-2.163-4.326a2.163 2.163 0 0 0-3.87 1.935l2.163 4.326a2.163 2.163 0 1 0 3.87-1.935z"/></g></g></g><g><g><g><path fill="url(#5kjdc)" d="M46.388.227a2.168 2.168 0 0 0-2.902.967L41.323 5.52a2.163 2.163 0 0 0 3.87 1.935l2.163-4.326a2.163 2.163 0 0 0-.968-2.902z"/></g></g></g><g><g><g><path fill="url(#5kjdd)" d="M23.792 12.976h-4.326a2.162 2.162 0 1 0 0 4.326h4.326a2.162 2.162 0 1 0 0-4.326z"/></g></g></g><g><g><g><path fill="url(#5kjde)" d="M10.815 34.75H2.163A2.163 2.163 0 0 0 0 36.912v34.606c0 1.194.968 2.163 2.163 2.163h8.652a2.163 2.163 0 0 0 2.163-2.163V36.913a2.163 2.163 0 0 0-2.163-2.164z"/></g></g></g><g><g><g><path fill="url(#5kjdf)" d="M64.844 40.483c-.381-3.355-3.515-5.734-6.892-5.734H41.089c1.433-2.566 2.202-9.823 2.168-12.788-.056-4.908-4.12-8.84-9.029-8.84h-1.784a2.162 2.162 0 0 0-2.163 2.163c0 5.001-1.947 14.029-5.621 17.702-2.472 2.472-4.586 3.368-7.356 4.753v32.454c4.242 1.415 9.63 3.49 17.84 3.49h14.15c4.661 0 8.292-4.319 6.486-8.88a6.49 6.49 0 0 0 4.326-8.652c4.638-1.264 6.345-6.991 3.125-10.587a6.476 6.476 0 0 0 1.613-5.081z"/></g></g></g></g></g></svg>