<svg xmlns="http://www.w3.org/2000/svg" width="85" height="75" viewBox="0 0 85 75"><defs><linearGradient id="qbiza" x1="19.61" x2="18.75" y1="6.46" y2="36.3" gradientUnits="userSpaceOnUse"><stop offset="0" stop-color="#ffa3a3"/><stop offset="1" stop-color="#f82626"/></linearGradient><linearGradient id="qbizb" x1="6" x2="5.5" y1="23.88" y2="52.49" gradientUnits="userSpaceOnUse"><stop offset="0" stop-color="#ffa3a3"/><stop offset="1" stop-color="#f82626"/></linearGradient><linearGradient id="qbizc" x1="41.67" x2="42.51" y1=".66" y2="27.1" gradientUnits="userSpaceOnUse"><stop offset="0" stop-color="#ffa3a3"/><stop offset="1" stop-color="#f82626"/></linearGradient><linearGradient id="qbizd" x1="12.99" x2="13.42" y1="32.94" y2="54.36" gradientUnits="userSpaceOnUse"><stop offset="0" stop-color="#ffa3a3"/><stop offset="1" stop-color="#f82626"/></linearGradient><linearGradient id="qbize" x1="42.58" x2="41.61" y1="6.46" y2="39.85" gradientUnits="userSpaceOnUse"><stop offset="0" stop-color="#ffa3a3"/><stop offset="1" stop-color="#f82626"/></linearGradient><linearGradient id="qbizf" x1="66.43" x2="66.47" y1="6.46" y2="38.13" gradientUnits="userSpaceOnUse"><stop offset="0" stop-color="#ffa3a3"/><stop offset="1" stop-color="#f82626"/></linearGradient><linearGradient id="qbizg" x1="36.33" x2="37.06" y1="36.94" y2="70.33" gradientUnits="userSpaceOnUse"><stop offset="0" stop-color="#ffa3a3"/><stop offset="1" stop-color="#f82626"/></linearGradient><linearGradient id="qbizh" x1="57.93" x2="58.19" y1="28.42" y2="56.98" gradientUnits="userSpaceOnUse"><stop offset="0" stop-color="#ffa3a3"/><stop offset="1" stop-color="#f82626"/></linearGradient><linearGradient id="qbizi" x1="43.13" x2="43" y1="70.91" y2="74.68" gradientUnits="userSpaceOnUse"><stop offset="0" stop-color="#ffa3a3"/><stop offset="1" stop-color="#f82626"/></linearGradient><linearGradient id="qbizj" x1="37.84" x2="37.64" y1="67.42" y2="73.23" gradientUnits="userSpaceOnUse"><stop offset="0" stop-color="#ffa3a3"/><stop offset="1" stop-color="#f82626"/></linearGradient><linearGradient id="qbizk" x1="29.13" x2="28.93" y1="58.72" y2="64.52" gradientUnits="userSpaceOnUse"><stop offset="0" stop-color="#ffa3a3"/><stop offset="1" stop-color="#f82626"/></linearGradient><linearGradient id="qbizl" x1="33.48" x2="33.29" y1="63.07" y2="68.88" gradientUnits="userSpaceOnUse"><stop offset="0" stop-color="#ffa3a3"/><stop offset="1" stop-color="#f82626"/></linearGradient><linearGradient id="qbizm" x1="24.77" x2="24.58" y1="54.36" y2="60.17" gradientUnits="userSpaceOnUse"><stop offset="0" stop-color="#ffa3a3"/><stop offset="1" stop-color="#f82626"/></linearGradient></defs><g><g><g><path fill="url(#qbiza)" d="M15.242 22.9l.724.418v4.597l-3.3.825 7.655 4.466-.055 2.684-.118.412 4.527-1.008v-1.076a7.22 7.22 0 0 1 2.08-5.058l-4.981-1.245-.006-4.593.726-.42a7.287 7.287 0 0 0 3.633-6.28v-2.538c0-4.084-3.155-7.503-7.034-7.619-1.965-.076-3.856.666-5.278 2.044a7.2 7.2 0 0 0-2.203 5.21v2.903a7.279 7.279 0 0 0 3.63 6.278z"/></g><g><path fill="url(#qbizb)" d="M0 23.879v26.532l6.23 2.078 5.267-21.07z"/></g><g><path fill="url(#qbizc)" d="M59.512 24.95a10.191 10.191 0 0 1-4.355-8.328v-2.903c0-1.6.376-3.134 1.067-4.52-2.746-5.21-8.21-8.544-14.13-8.544-5.978 0-11.464 3.379-14.19 8.66a10.702 10.702 0 0 1 1.126 4.77v2.537c0 3.322-1.651 6.442-4.356 8.33v.695l5.807 1.453 5.807-1.453v-.697a10.191 10.191 0 0 1-4.355-8.328v-2.903c0-2.773 1.096-5.362 3.086-7.293a10.093 10.093 0 0 1 7.386-2.864c5.431.165 9.85 4.884 9.85 10.522v2.538c0 3.322-1.652 6.442-4.357 8.33v.695l5.808 1.453 5.806-1.453z"/></g><g><path fill="url(#qbizd)" d="M17.418 34.873l-3.31-1.93L8.99 53.409l2.857.952h.122l5.449-19.073z"/></g><g><path fill="url(#qbize)" d="M30.876 29.993a4.35 4.35 0 0 0-3.297 4.225v.43l.832-.185a17.925 17.925 0 0 1 9.3.424l6.571 2.1c.727.028 1.452.108 2.154.309l8.925 2.55h.89l.358-.188v-5.44a4.351 4.351 0 0 0-3.298-4.225l-8.313-2.078-.006-4.593.726-.42a7.287 7.287 0 0 0 3.633-6.28v-2.538c0-4.084-3.155-7.503-7.034-7.619-1.96-.076-3.856.666-5.277 2.044a7.199 7.199 0 0 0-2.204 5.21v2.903a7.279 7.279 0 0 0 3.63 6.278l.724.418v4.597z"/></g><g><path fill="url(#qbizf)" d="M58.06 13.719v2.903a7.279 7.279 0 0 0 3.63 6.278l.725.418v4.597l-4.982 1.245a7.225 7.225 0 0 1 2.079 5.058v3.91l15.962-8.4-7.252-1.813-.006-4.593.727-.42a7.287 7.287 0 0 0 3.632-6.28v-2.538c0-4.084-3.155-7.503-7.034-7.619-1.97-.076-3.855.666-5.277 2.044a7.199 7.199 0 0 0-2.204 5.21z"/></g><g><path fill="url(#qbizg)" d="M45.278 47.86c-.938-.844-2.395-.988-3.48-.336l-5.407 3.241a4.844 4.844 0 0 1-2.498.693 4.869 4.869 0 0 1-4.863-4.863v-.287a4.837 4.837 0 0 1 2.688-4.349l7.25-3.624-2.139-.684a14.954 14.954 0 0 0-7.788-.353l-9.799 2.18-3.909 13.68 4.46 2.675c.128-.171.254-.344.406-.497l2.551-2.551a4.55 4.55 0 0 1 3.2-1.327c2.444 0 4.43 1.947 4.515 4.37a4.519 4.519 0 0 1 4.355 4.355 4.519 4.519 0 0 1 4.354 4.355 4.515 4.515 0 0 1 3.898 2.536l3.24 2.7a2.39 2.39 0 0 0 1.525.554 1.515 1.515 0 0 0 .97-2.677l-7.644-6.37 1.86-2.23 7.884 6.57c.272.227.615.352.968.352h.317a1.515 1.515 0 0 0 .97-2.677l-7.644-6.368 1.86-2.232 7.87 6.56c.279.234.636.362 1 .362h.25a1.562 1.562 0 0 0 1.045-2.721z"/></g><g><path fill="url(#qbizh)" d="M56.967 42.749l-2.207-.055-9.122-2.606a6.314 6.314 0 0 0-4.524.42l-8.096 4.048a1.948 1.948 0 0 0-1.085 1.752v.287a1.961 1.961 0 0 0 2.964 1.683l5.407-3.243a5.828 5.828 0 0 1 3.007-.835c1.447 0 2.837.533 3.91 1.501L59.485 56.74c.088.078.17.158.25.242l24.453-12.227V28.422z"/></g><g><path fill="url(#qbizi)" d="M43.133 70.907a4.5 4.5 0 0 1-.914 1.348l-1.09 1.09 1.085.958c.276.244.632.379 1 .379h.269a1.515 1.515 0 0 0 .97-2.677z"/></g><g><path fill="url(#qbizj)" d="M39.015 67.425a1.64 1.64 0 0 0-1.151.476l-2.552 2.551a1.629 1.629 0 0 0 2.303 2.302l2.55-2.551a1.629 1.629 0 0 0-1.15-2.778z"/></g><g><path fill="url(#qbizk)" d="M31.933 60.343a1.63 1.63 0 0 0-2.778-1.151l-2.552 2.551a1.629 1.629 0 0 0 2.302 2.302l2.552-2.551a1.64 1.64 0 0 0 .476-1.151z"/></g><g><path fill="url(#qbizl)" d="M36.288 64.698a1.63 1.63 0 0 0-2.779-1.152l-2.551 2.552A1.63 1.63 0 0 0 33.26 68.4l2.551-2.552c.304-.303.477-.722.477-1.15z"/></g><g><path fill="url(#qbizm)" d="M27.579 55.988a1.63 1.63 0 0 0-2.779-1.151l-2.551 2.552a1.63 1.63 0 0 0 2.302 2.302l2.551-2.552c.304-.303.477-.723.477-1.15z"/></g></g></g></svg>