<svg id="Group_863" data-name="Group 863" xmlns="http://www.w3.org/2000/svg" xmlns:xlink="http://www.w3.org/1999/xlink" width="130" height="130" viewBox="0 0 130 130">
  <defs>
    <linearGradient id="linear-gradient" x1="0.5" x2="0.5" y2="1" gradientUnits="objectBoundingBox">
      <stop offset="0" stop-color="#fff"/>
      <stop offset="1" stop-color="#e5ceff"/>
    </linearGradient>
    <linearGradient id="linear-gradient-2" x1="0.5" x2="0.5" y2="1" gradientUnits="objectBoundingBox">
      <stop offset="0" stop-color="#727dff"/>
      <stop offset="1" stop-color="#3d1bad"/>
    </linearGradient>
  </defs>
  <g id="Group_50" data-name="Group 50">
    <rect id="Rectangle_14" data-name="Rectangle 14" width="130" height="130" rx="30" fill="url(#linear-gradient)"/>
  </g>
  <g id="Contact_Book" data-name="Contact Book" transform="translate(32.523 29.418)">
    <path id="Path_62" data-name="Path 62" d="M41.317,38.006A5.487,5.487,0,0,1,36.13,34.27L29,36.3v11.29h4.106V40.743h2.737v6.843H46.791V40.743h2.737v6.843h4.106V36.3L46.5,34.27a5.487,5.487,0,0,1-5.187,3.736Z" transform="translate(-1.629 4.419)" fill="url(#linear-gradient-2)"/>
    <path id="Path_63" data-name="Path 63" d="M36.67,32.729a2.808,2.808,0,0,0,1.067.219h2.737a2.808,2.808,0,0,0,1.067-.219,2.754,2.754,0,0,0,1.67-2.518V24.737A2.745,2.745,0,0,0,40.474,22H37.737A2.745,2.745,0,0,0,35,24.737v5.474A2.754,2.754,0,0,0,36.67,32.729Z" transform="translate(0.582 -0.103)" fill="url(#linear-gradient-2)"/>
    <path id="Path_64" data-name="Path 64" d="M40.1,32.015H37.365a4.7,4.7,0,0,1-.766-.055l-.588,1.629a2.731,2.731,0,0,0,5.447,0l-.588-1.629A4.7,4.7,0,0,1,40.1,32.015Z" transform="translate(0.954 3.567)" fill="url(#linear-gradient-2)"/>
    <path id="Path_65" data-name="Path 65" d="M67.847,6h-52a4.118,4.118,0,0,0-4.106,4.106V23.791H9v2.737H19.948V23.791H14.474V10.106a1.373,1.373,0,0,1,1.369-1.369h9.58v65.69h-9.58a1.373,1.373,0,0,1-1.369-1.369V64.847H11.737v8.211a4.118,4.118,0,0,0,4.106,4.106h52a4.118,4.118,0,0,0,4.106-4.106V10.106A4.118,4.118,0,0,0,67.847,6ZM63.742,59.373a1.373,1.373,0,0,1-1.369,1.369H35a1.373,1.373,0,0,1-1.369-1.369V45.688a1.363,1.363,0,0,1,1-1.314l8.9-2.545.493-1.355a5.45,5.45,0,0,1-2.176-4.366V30.634a5.473,5.473,0,0,1,5.474-5.474h2.737a5.473,5.473,0,0,1,5.474,5.474v5.474a5.45,5.45,0,0,1-2.176,4.366l.493,1.355,8.9,2.545a1.363,1.363,0,0,1,1,1.314Z" transform="translate(-9 -6)" fill="url(#linear-gradient-2)"/>
    <path id="Path_66" data-name="Path 66" d="M19.948,35.317H14.474V23H11.737V35.317H9v2.737H19.948Z" transform="translate(-9 0.265)" fill="url(#linear-gradient-2)"/>
    <path id="Path_67" data-name="Path 67" d="M19.948,48.317H14.474V36H11.737V48.317H9v2.737H19.948Z" transform="translate(-9 5.056)" fill="url(#linear-gradient-2)"/>
  </g>
</svg>
