<svg xmlns="http://www.w3.org/2000/svg" xmlns:xlink="http://www.w3.org/1999/xlink" width="130" height="130" viewBox="0 0 130 130">
  <defs>
    <linearGradient id="linear-gradient" x1="0.5" x2="0.5" y2="1" gradientUnits="objectBoundingBox">
      <stop offset="0" stop-color="#ff735a"/>
      <stop offset="1" stop-color="#fcbc45"/>
    </linearGradient>
  </defs>
  <g id="Group_27" data-name="Group 27" transform="translate(-0.118)">
    <rect id="Rectangle_12" data-name="Rectangle 12" width="130" height="130" rx="30" transform="translate(0.118)" fill="url(#linear-gradient)"/>
    <g id="School_building" data-name="School building" transform="translate(30.633 26.469)">
      <path id="Path_61" data-name="Path 61" d="M73.739,67.094H72.411V63.109a1.328,1.328,0,0,0-1.328-1.328V49.828h2.656a1.315,1.315,0,0,0,1.142-1.979L66.912,33.24a1.328,1.328,0,0,0-1.142-.677h-9.3V25.3l3.36,1.793a1.328,1.328,0,1,0,1.248-2.338l-5.312-2.829L41.864,14.5V12.641H48.5a1.328,1.328,0,0,0,1.328-1.328V7.328A1.328,1.328,0,0,0,48.5,6H40.536a1.328,1.328,0,0,0-1.328,1.328V14.5L25.3,21.938,19.99,24.766A1.328,1.328,0,1,0,21.238,27.1L24.6,25.3v7.265H15.3a1.328,1.328,0,0,0-1.169.691L6.164,47.862a1.3,1.3,0,0,0,1.169,1.966H9.989V61.781a1.328,1.328,0,0,0-1.328,1.328v3.984H7.333A1.328,1.328,0,0,0,6,68.422v5.313a1.328,1.328,0,0,0,1.328,1.328H73.739a1.328,1.328,0,0,0,1.328-1.328V68.422A1.328,1.328,0,0,0,73.739,67.094ZM27.255,23.89,40.536,16.8,53.817,23.89v8.673H27.255Zm0,39.22V49.23l13.281-8.447L53.817,49.23V67.094H47.176V53.812a1.328,1.328,0,0,0-1.328-1.328H35.223A1.328,1.328,0,0,0,33.9,53.812V67.094H27.255Zm41.172-1.328H56.473V49.828H68.426ZM12.645,49.828H24.6V61.781H12.645Z" transform="translate(-5.986 -6)" fill="#fff"/>
      <circle id="Ellipse_1" data-name="Ellipse 1" cx="5.313" cy="5.313" r="5.313" transform="translate(29.237 14.609)" fill="#fff"/>
    </g>
  </g>
</svg>
