<svg xmlns="http://www.w3.org/2000/svg" xmlns:xlink="http://www.w3.org/1999/xlink" width="130" height="130" viewBox="0 0 130 130">
  <defs>
    <linearGradient id="linear-gradient" x1="0.5" x2="0.5" y2="1" gradientUnits="objectBoundingBox">
      <stop offset="0" stop-color="#ffb871"/>
      <stop offset="1" stop-color="#ff7334"/>
    </linearGradient>
  </defs>
  <g id="Group_860" data-name="Group 860" transform="translate(-0.483)">
    <g id="Group_48" data-name="Group 48">
      <rect id="Rectangle_9" data-name="Rectangle 9" width="130" height="130" rx="30" transform="translate(0.483)" fill="url(#linear-gradient)"/>
    </g>
    <g id="presentation" transform="translate(26.598 31.739)">
      <path id="Path_103" data-name="Path 103" d="M233.672,0H199.881a7.08,7.08,0,0,0-7.08,7.08V23.725l5.518,2.743,2.756-5.515A6.76,6.76,0,1,1,213.168,27l-4.913,9.829a10.265,10.265,0,0,1-.352,3.882h3.244l-8.556,23.526a2.253,2.253,0,1,0,4.235,1.54l9.115-25.066h1.579l9.208,25.074a2.253,2.253,0,0,0,4.23-1.553l-8.638-23.52h11.351a7.08,7.08,0,0,0,7.08-7.08V7.08A7.08,7.08,0,0,0,233.672,0Zm-4.828,31.057h-10.11a2.253,2.253,0,0,1,0-4.507h10.11a2.253,2.253,0,0,1,0,4.507Zm0-8.448h-10.11a2.253,2.253,0,0,1,0-4.507h10.11a2.253,2.253,0,0,1,0,4.507Zm0-8.447H204.709a2.253,2.253,0,0,1,0-4.507h24.135a2.253,2.253,0,0,1,0,4.507Zm0,0" transform="translate(-163.838)" fill="#fff"/>
      <path id="Path_104" data-name="Path 104" d="M39.647,65.237a5.826,5.826,0,0,0,.06-3.577L45.3,50.477a2.253,2.253,0,1,0-4.031-2.016L36.5,58c-2.851-1.419-7.182-3.573-10.671-5.308-3.246-1.614-5.563-3.062-9.516-3.062H14.322a9.816,9.816,0,1,0-7.147-3.088,9.79,9.79,0,0,0,7.147,3.088A14.393,14.393,0,0,0,4.2,53.822,14.208,14.208,0,0,0,0,63.951v7.241A7.093,7.093,0,0,0,4.827,77.9V90.5A2.253,2.253,0,0,0,7.08,92.753H21.562A2.253,2.253,0,0,0,23.815,90.5V65.182l7.214,3.607a6.172,6.172,0,0,0,8.609-3.526Zm0,0" transform="translate(0 -25.493)" fill="#fff"/>
    </g>
  </g>
</svg>
