<svg xmlns="http://www.w3.org/2000/svg" xmlns:xlink="http://www.w3.org/1999/xlink" width="130" height="130" viewBox="0 0 130 130">
  <defs>
    <linearGradient id="linear-gradient" x1="0.5" x2="0.5" y2="1" gradientUnits="objectBoundingBox">
      <stop offset="0" stop-color="#64dbff"/>
      <stop offset="1" stop-color="#4294f4"/>
    </linearGradient>
  </defs>
  <g id="Group_16" data-name="Group 16" transform="translate(0.399)">
    <rect id="Rectangle_7" data-name="Rectangle 7" width="130" height="130" rx="30" transform="translate(-0.399)" fill="url(#linear-gradient)"/>
    <g id="Trophy_Book" data-name="Trophy Book" transform="translate(32.723 25)">
      <rect id="Rectangle_43" data-name="Rectangle 43" width="38" height="5" rx="1" transform="translate(13.878 0)" fill="#fff"/>
      <path id="Path_79" data-name="Path 79" d="M34.737,15.123l-.92-1.864L32.9,15.122a1.263,1.263,0,0,1-.952.691l-2.055.3,1.487,1.449a1.265,1.265,0,0,1,.364,1.118l-.351,2.047,1.838-.966a1.263,1.263,0,0,1,1.175,0l1.839.967-.35-2.048a1.263,1.263,0,0,1,.363-1.117l1.487-1.45-2.055-.3A1.262,1.262,0,0,1,34.737,15.123Z" transform="translate(-0.981 3.533)" fill="#fff"/>
      <path id="Path_80" data-name="Path 80" d="M51.311,19.892V6H21V19.892a15.155,15.155,0,0,0,30.311,0Zm-7.634-1.849-2.844,2.773.671,3.915a1.263,1.263,0,0,1-1.831,1.331l-3.517-1.848L32.64,26.062a1.263,1.263,0,0,1-1.833-1.331l.672-3.915-2.844-2.772a1.263,1.263,0,0,1,.7-2.155l3.931-.571,1.758-3.562a1.315,1.315,0,0,1,2.265,0l1.759,3.563,3.929.57a1.263,1.263,0,0,1,.7,2.154Z" transform="translate(-3.319 1.624)" fill="#fff"/>
      <path id="Path_81" data-name="Path 81" d="M47.657,11.526H48.92v10.1a5.027,5.027,0,0,1-2.7,4.471A18.322,18.322,0,0,1,44.5,29.182a7.589,7.589,0,0,0,6.946-7.552V10.263A1.267,1.267,0,0,0,50.183,9H47.657Z" transform="translate(2.86 2.413)" fill="#fff"/>
      <path id="Path_82" data-name="Path 82" d="M22.946,29.182A18.322,18.322,0,0,1,21.229,26.1a5.027,5.027,0,0,1-2.7-4.471v-10.1h1.263V9H17.263A1.267,1.267,0,0,0,16,10.263V21.629a7.589,7.589,0,0,0,6.946,7.552Z" transform="translate(-4.633 2.413)" fill="#fff"/>
      <path id="Path_83" data-name="Path 83" d="M34.362,31.245a17.476,17.476,0,0,1-6.315-1.175v4.963A3.5,3.5,0,0,1,27.82,36.3H40.9a3.5,3.5,0,0,1-.227-1.263V30.07a17.476,17.476,0,0,1-6.315,1.175Z" transform="translate(-1.525 7.953)" fill="#fff"/>
      <path id="Path_84" data-name="Path 84" d="M51.112,40.789A5.041,5.041,0,0,0,46.225,37H26.018a5.041,5.041,0,0,0-4.888,3.789Z" transform="translate(-3.285 9.775)" fill="#fff"/>
      <path id="Path_85" data-name="Path 85" d="M47,61.052H58.367a1.267,1.267,0,0,0,1.263-1.263V56H47Z" transform="translate(3.518 14.771)" fill="#fff"/>
      <path id="Path_86" data-name="Path 86" d="M68.884,42H18.367a11.367,11.367,0,0,0,0,22.733h21.47V59.681H18.367a6.315,6.315,0,1,1,0-12.629H70.147V43.263A1.267,1.267,0,0,0,68.884,42Z" transform="translate(-7 11.09)" fill="#fff"/>
      <path id="Path_87" data-name="Path 87" d="M35,65.892a1.263,1.263,0,0,0,2.021,1.01l4.294-3.221L45.609,66.9a1.263,1.263,0,0,0,2.021-1.01V52H35Z" transform="translate(0.362 13.72)" fill="#fff"/>
      <rect id="Rectangle_44" data-name="Rectangle 44" width="8" height="3" transform="translate(50.878 65)" fill="#fff"/>
      <path id="Path_88" data-name="Path 88" d="M16.789,50.526H64.781V48H16.789a3.789,3.789,0,0,0,0,7.578h21.47V53.052H16.789a1.263,1.263,0,0,1,0-2.526Z" transform="translate(-5.422 12.668)" fill="#fff"/>
    </g>
  </g>
</svg>
