<svg xmlns="http://www.w3.org/2000/svg" xmlns:xlink="http://www.w3.org/1999/xlink" width="130" height="130" viewBox="0 0 130 130">
  <defs>
    <linearGradient id="linear-gradient" x1="0.5" x2="0.5" y2="1" gradientUnits="objectBoundingBox">
      <stop offset="0" stop-color="#fff"/>
      <stop offset="1" stop-color="#d8f0fd"/>
    </linearGradient>
    <linearGradient id="linear-gradient-2" x1="0.5" x2="0.5" y2="1" gradientUnits="objectBoundingBox">
      <stop offset="0" stop-color="#485dff"/>
      <stop offset="1" stop-color="#417cff"/>
    </linearGradient>
  </defs>
  <g id="Group_861" data-name="Group 861" transform="translate(0.399)">
    <g id="Group_17" data-name="Group 17">
      <rect id="Rectangle_11" data-name="Rectangle 11" width="130" height="130" rx="30" transform="translate(-0.399)" fill="url(#linear-gradient)"/>
    </g>
    <g id="podium" transform="translate(-19.451 22.567)">
      <g id="Group_458" data-name="Group 458" transform="translate(50.053)">
        <path id="Path_163" data-name="Path 163" d="M98.79,299.6v7.818l-18.866,0v25.24H136.81V312.523l-18.826,0V299.6h0M93.529,325.717H85v-1.7l1.555-1.4c2.624-2.351,3.9-3.7,3.939-5.105,0-.979-.591-1.757-1.978-1.757a4.365,4.365,0,0,0-2.571,1l-.8-2.018a6.651,6.651,0,0,1,3.941-1.24c2.719,0,4.218,1.59,4.218,3.775,0,2.015-1.462,3.625-3.2,5.179L89,323.37v.038H93.53v2.311h0Zm33.061-2.154h-1.146v-2.018h1.09c.943-.017,2.146-.371,2.146-1.386,0-.718-.592-1.256-1.777-1.256a5.456,5.456,0,0,0-2.513.72l-.575-2.036a7.531,7.531,0,0,1,3.72-.906c2.57,0,3.994,1.352,3.994,3a2.874,2.874,0,0,1-2.2,2.791v.038a2.992,2.992,0,0,1,2.612,2.919c0,2.13-1.87,3.685-4.926,3.685a7.083,7.083,0,0,1-3.567-.852l.572-2.108a6.639,6.639,0,0,0,2.794.74c1.462,0,2.2-.7,2.2-1.609C129.011,324.1,127.827,323.563,126.59,323.563Zm-17.247-7.886H106.62v-9.531h-.035l-2.3,1.093-.462-2.113,3.182-1.478h2.334Z" transform="translate(-74.83 -248.514)" fill="url(#linear-gradient-2)"/>
        <circle id="Ellipse_7" data-name="Ellipse 7" cx="5.038" cy="5.038" r="5.038" transform="translate(8.55 9.58)" fill="url(#linear-gradient-2)"/>
        <path id="Path_164" data-name="Path 164" d="M117.993,116.929l-1.254,1.262-1.215-1.275h-.013a7.787,7.787,0,0,1-1.445.72l3.056,5.155h.29l-.619-1.048,2.515-4.284A5.618,5.618,0,0,0,117.993,116.929Z" transform="translate(-103.15 -96.979)" fill="url(#linear-gradient-2)"/>
        <circle id="Ellipse_8" data-name="Ellipse 8" cx="0.692" cy="0.692" r="0.692" transform="translate(12.896 27.086)" fill="url(#linear-gradient-2)"/>
        <path id="Path_165" data-name="Path 165" d="M74.281,111.429c-1.133-7.707-2.831-11.154-6.86-13.784l-2.707,4.665v1.008h-.228a1.282,1.282,0,1,1-1.694,0H62.5v-.863L59.62,97.588a5.9,5.9,0,0,1-3.6.154c-1.037-.551-1.739-1.864-2.082-3.9a1.956,1.956,0,0,0-3.858.652c.557,3.3,1.94,5.561,4.11,6.711a7.034,7.034,0,0,0,3.336.792,9.475,9.475,0,0,0,.958-.064v10.008a4.125,4.125,0,0,0,.362,1.689l-.01,18.822a2.312,2.312,0,1,0,4.623,0V116.376l.328,0v16.07a2.312,2.312,0,1,0,4.624,0L68.4,113.634a5.628,5.628,0,0,0,.393-2.071V105.2A30.613,30.613,0,0,1,70.41,112a1.957,1.957,0,0,0,1.932,1.672,1.865,1.865,0,0,0,.287-.021A1.954,1.954,0,0,0,74.281,111.429Z" transform="translate(-50.053 -76.484)" fill="url(#linear-gradient-2)"/>
        <path id="Path_166" data-name="Path 166" d="M126.615,153.419h-.142l-.02.014H125.1v.312h1.52Z" transform="translate(-112.299 -127.258)" fill="url(#linear-gradient-2)"/>
        <path id="Path_167" data-name="Path 167" d="M339.208,85.732a5.039,5.039,0,1,1-5.038,5.039A5.038,5.038,0,0,1,339.208,85.732Z" transform="translate(-285.722 -71.113)" fill="url(#linear-gradient-2)"/>
        <path id="Path_168" data-name="Path 168" d="M352.451,146.467h-.013l-1.215,1.276-1.255-1.263a5.665,5.665,0,0,0-1.313.532l2.515,4.282-.619,1.048h.29l3.056-5.155A7.707,7.707,0,0,1,352.451,146.467Z" transform="translate(-297.737 -121.49)" fill="url(#linear-gradient-2)"/>
        <path id="Path_169" data-name="Path 169" d="M360.34,188.4a.691.691,0,1,1-.692.691A.693.693,0,0,1,360.34,188.4Z" transform="translate(-306.855 -156.269)" fill="url(#linear-gradient-2)"/>
        <path id="Path_170" data-name="Path 170" d="M323.794,121.78a1.952,1.952,0,0,0-2.254,1.6c-.345,2.042-1.047,3.354-2.083,3.9a5.884,5.884,0,0,1-3.6-.153L312.974,132v.863h-.295a1.28,1.28,0,1,1-1.692,0h-.228v-1.008l-2.707-4.664c-4.031,2.629-5.729,6.077-6.862,13.783a1.956,1.956,0,0,0,1.652,2.22,1.768,1.768,0,0,0,.288.022,1.959,1.959,0,0,0,1.932-1.673,30.408,30.408,0,0,1,1.614-6.8v6.364a5.724,5.724,0,0,0,.359,2.094c0,.02-.007,18.79-.007,18.79a2.312,2.312,0,0,0,4.624,0v-16.07h.328v16.071a2.311,2.311,0,0,0,4.622,0l-.009-18.789a6.158,6.158,0,0,0,.4-2.073v-9.656a9.228,9.228,0,0,0,.963.062,7.034,7.034,0,0,0,3.336-.795c2.169-1.149,3.552-3.407,4.11-6.711A1.955,1.955,0,0,0,323.794,121.78Z" transform="translate(-258.349 -100.991)" fill="url(#linear-gradient-2)"/>
        <path id="Path_171" data-name="Path 171" d="M360.96,182.979H359.6l-.018-.015h-.142v.326h1.52Z" transform="translate(-306.683 -151.765)" fill="url(#linear-gradient-2)"/>
        <g id="Group_457" data-name="Group 457" transform="translate(19.518)">
          <path id="Path_172" data-name="Path 172" d="M221.482,10.409a5.2,5.2,0,1,0-5.2-5.2A5.2,5.2,0,0,0,221.482,10.409Z" transform="translate(-207.451)" fill="url(#linear-gradient-2)"/>
          <circle id="Ellipse_9" data-name="Ellipse 9" cx="0.824" cy="0.824" r="0.824" transform="translate(13.363 19.022)" fill="url(#linear-gradient-2)"/>
          <path id="Path_173" data-name="Path 173" d="M233.687,62.747l-1.3,1.3-1.254-1.318c-.007,0-.01,0-.014,0-.281.067-.865.433-1.692.777L233,69.542h.347l-.739-1.248,2.873-4.894C234.608,63.09,233.921,62.8,233.687,62.747Z" transform="translate(-218.36 -52.036)" fill="url(#linear-gradient-2)"/>
          <path id="Path_174" data-name="Path 174" d="M191.206,37.333a2.031,2.031,0,0,0-2.329,1.657c-.323,1.925-.93,3.175-1.8,3.716-.886.585-2.393.4-3.813.026l-3.282,5.653v1.2h-.272a1.526,1.526,0,1,1-2.015,0h-.349V48.559l-3.388-5.717a7.169,7.169,0,0,1-3.63-.231c-.872-.541-1.478-1.793-1.8-3.716a2.021,2.021,0,0,0-3.985.672c.529,3.162,1.727,5.278,3.652,6.477a7.226,7.226,0,0,0,3.89,1.026A10.9,10.9,0,0,0,173.219,47V57.587a3.758,3.758,0,0,0,.357,1.786v19.4a2.388,2.388,0,1,0,4.776,0V62.157l.339,0v16.61a2.387,2.387,0,1,0,4.775,0l-.018-19.406a4.846,4.846,0,0,0,.425-1.774V47.064a11.768,11.768,0,0,0,1.443.1,7.25,7.25,0,0,0,3.893-1.027c1.925-1.2,3.122-3.315,3.655-6.477A2.023,2.023,0,0,0,191.206,37.333Z" transform="translate(-164.515 -30.865)" fill="url(#linear-gradient-2)"/>
          <path id="Path_175" data-name="Path 175" d="M243.988,105.078h-.168l-.025.017h-1.616v.372h1.81Z" transform="translate(-228.935 -87.16)" fill="url(#linear-gradient-2)"/>
        </g>
      </g>
    </g>
  </g>
</svg>
