<svg xmlns="http://www.w3.org/2000/svg" xmlns:xlink="http://www.w3.org/1999/xlink" width="130" height="130" viewBox="0 0 130 130">
  <defs>
    <linearGradient id="linear-gradient" x1="0.5" x2="0.5" y2="1" gradientUnits="objectBoundingBox">
      <stop offset="0" stop-color="#6ce84d"/>
      <stop offset="1" stop-color="#1dad3e"/>
    </linearGradient>
  </defs>
  <g id="Group_859" data-name="Group 859" transform="translate(-0.118)">
    <g id="Group_46" data-name="Group 46">
      <rect id="Rectangle_8" data-name="Rectangle 8" width="130" height="130" rx="30" transform="translate(0.118)" fill="url(#linear-gradient)"/>
    </g>
    <g id="direction" transform="translate(31.683 24.493)">
      <g id="Group_63" data-name="Group 63">
        <path id="Path_78" data-name="Path 78" d="M105.924,25.654a3.613,3.613,0,0,0,3.611-3.646V13.1a3.613,3.613,0,0,0-3.611-3.646H81.45v-5.4a4.012,4.012,0,1,0-8.024,0v5.4h-21.4a1.424,1.424,0,0,0-.8.27L43.2,16.473a1.358,1.358,0,0,0,0,2.16l8.024,6.751a1.425,1.425,0,0,0,.8.27h21.4v8.1H46.278A3.613,3.613,0,0,0,42.667,37.4v9.046a3.586,3.586,0,0,0,3.611,3.511H73.426V72.912a6.654,6.654,0,0,0-6.687,6.751,1.27,1.27,0,0,0,1.337,1.35H86.8a1.27,1.27,0,0,0,1.337-1.35,6.654,6.654,0,0,0-6.687-6.751V49.958h18.723a1.424,1.424,0,0,0,.8-.27L109,42.937a1.673,1.673,0,0,0,.535-1.08,1.232,1.232,0,0,0-.535-1.08l-8.024-6.751a1.425,1.425,0,0,0-.8-.27H81.45v-8.1h24.474ZM88.137,16.2h12.036a1.35,1.35,0,0,1,0,2.7H88.137a1.35,1.35,0,0,1,0-2.7Zm-21.4,2.7H53.366a1.35,1.35,0,0,1,0-2.7H66.74a1.35,1.35,0,0,1,0,2.7Zm20.06,21.6H98.836a1.35,1.35,0,0,1,0,2.7H86.8a1.35,1.35,0,0,1,0-2.7ZM76.1,4.051a1.337,1.337,0,1,1,2.675,0v5.4H76.1ZM65.4,43.207H52.028a1.35,1.35,0,0,1,0-2.7H65.4a1.35,1.35,0,0,1,0,2.7Zm13.374,29.7H76.1V49.958h2.675Zm0-29.7H73.426a1.35,1.35,0,0,1,0-2.7h5.349a1.35,1.35,0,0,1,0,2.7ZM76.1,33.755v-8.1h2.675v8.1ZM80.113,18.9H74.764a1.35,1.35,0,0,1,0-2.7h5.349a1.35,1.35,0,0,1,0,2.7Z" transform="translate(-42.667)" fill="#fff"/>
      </g>
    </g>
  </g>
</svg>
