<svg xmlns="http://www.w3.org/2000/svg" xmlns:xlink="http://www.w3.org/1999/xlink" width="130" height="130" viewBox="0 0 130 130">
  <defs>
    <linearGradient id="linear-gradient" x1="0.5" x2="0.5" y2="1" gradientUnits="objectBoundingBox">
      <stop offset="0" stop-color="#fff"/>
      <stop offset="1" stop-color="#fdd8d8"/>
    </linearGradient>
    <linearGradient id="linear-gradient-2" x1="0.5" x2="0.5" y2="1" gradientUnits="objectBoundingBox">
      <stop offset="0" stop-color="#ed3138"/>
      <stop offset="1" stop-color="#ff7b7b"/>
    </linearGradient>
  </defs>
  <g id="Group_862" data-name="Group 862" transform="translate(-0.483)">
    <g id="Group_28" data-name="Group 28">
      <rect id="Rectangle_13" data-name="Rectangle 13" width="130" height="130" rx="30" transform="translate(0.483)" fill="url(#linear-gradient)"/>
    </g>
    <g id="Calendar" transform="translate(27.134 29.708)">
      <path id="Path_69" data-name="Path 69" d="M52,59.04,62.04,49H52Z" transform="translate(12.951 7.832)" fill="url(#linear-gradient-2)"/>
      <path id="Path_70" data-name="Path 70" d="M73.011,15.119H67.6V12.413a5.413,5.413,0,1,0-10.825,0v2.706H47.3V12.413a5.413,5.413,0,1,0-10.825,0v2.706H27V12.413a5.413,5.413,0,1,0-10.825,0v2.706H10.766A6.768,6.768,0,0,0,4,21.885V67.892a6.768,6.768,0,0,0,6.766,6.766H66.245V62.479A1.357,1.357,0,0,1,67.6,61.126H79.777V21.885a6.768,6.768,0,0,0-6.766-6.766ZM59.479,12.413a2.706,2.706,0,1,1,5.413,0v2.706H59.479Zm-20.3,0a2.706,2.706,0,0,1,5.413,0v2.706H39.182Zm-20.3,0a2.706,2.706,0,1,1,5.413,0v2.706H18.885Zm1.353,52.773H14.825V59.773h5.413Zm0-10.825H14.825V48.948h5.413Zm0-10.825H14.825V38.123h5.413Zm12.178,21.65H27V59.773h5.413Zm0-10.825H27V48.948h5.413Zm0-10.825H27V38.123h5.413Zm12.178,21.65H39.182V59.773h5.413Zm0-10.825H39.182V48.948h5.413Zm0-10.825H39.182V38.123h5.413Zm12.178,21.65H51.36V59.773h5.413Zm0-10.825H51.36V48.948h5.413Zm0-10.825H51.36V38.123h5.413ZM68.951,54.36H63.539V48.948h5.413Zm0-10.825H63.539V38.123h5.413ZM77.07,28.65H6.706V21.885a4.071,4.071,0,0,1,4.059-4.059h5.413v2.706a5.413,5.413,0,0,0,10.825,0H24.3a2.706,2.706,0,1,1-5.413,0V17.825H36.476v2.706a5.413,5.413,0,1,0,10.825,0H44.595a2.706,2.706,0,0,1-5.413,0V17.825H56.773v2.706a5.413,5.413,0,1,0,10.825,0H64.892a2.706,2.706,0,1,1-5.413,0V17.825H73.011a4.071,4.071,0,0,1,4.059,4.059Z" transform="translate(-4 -7)" fill="url(#linear-gradient-2)"/>
    </g>
  </g>
</svg>
