<svg xmlns="http://www.w3.org/2000/svg" xmlns:xlink="http://www.w3.org/1999/xlink" width="130" height="130" viewBox="0 0 130 130">
  <defs>
    <linearGradient id="linear-gradient" x1="0.5" x2="0.5" y2="1" gradientUnits="objectBoundingBox">
      <stop offset="0" stop-color="#fff"/>
      <stop offset="1" stop-color="#d8fdd8"/>
    </linearGradient>
    <linearGradient id="linear-gradient-2" x1="0.5" x2="0.5" y2="1" gradientUnits="objectBoundingBox">
      <stop offset="0" stop-color="#77e55b"/>
      <stop offset="1" stop-color="#30af92"/>
    </linearGradient>
  </defs>
  <g id="Group_865" data-name="Group 865" transform="translate(-0.483)">
    <g id="Group_28" data-name="Group 28">
      <rect id="Rectangle_13" data-name="Rectangle 13" width="130" height="130" rx="30" transform="translate(0.483)" fill="url(#linear-gradient)"/>
    </g>
    <g id="old-radio" transform="translate(28.483 24.086)">
      <path id="Path_160" data-name="Path 160" d="M62.788,57.422A5.219,5.219,0,1,1,57.57,52.2,5.218,5.218,0,0,1,62.788,57.422ZM74.84,31.516V66.057A8.638,8.638,0,0,1,66.2,74.692H8.635A8.638,8.638,0,0,1,0,66.057V31.516A8.616,8.616,0,0,1,6.33,23.23C6.324,23.11,6.3,23,6.3,22.878a5.2,5.2,0,0,1,7.153-4.839L63.5,4.17v0A4.139,4.139,0,1,1,67.64,8.305,4.068,4.068,0,0,1,64.161,6.27L16.231,20.68a5.152,5.152,0,0,1,.5,2.2H66.2A8.642,8.642,0,0,1,74.84,31.516ZM48.934,40.152H66.2V28.637H48.934ZM8.635,28.637V40.152h37.42V28.637Zm2.879,21.588a1.438,1.438,0,1,0-2.876,0V64.616a1.438,1.438,0,1,0,2.876,0Zm5.756,0a1.438,1.438,0,0,0-2.876,0V64.616a1.438,1.438,0,0,0,2.876,0Zm5.759,0a1.44,1.44,0,0,0-2.879,0V64.616a1.438,1.438,0,0,0,2.876,0l0-14.391Zm5.756,0a1.438,1.438,0,0,0-2.876,0V64.616a1.438,1.438,0,1,0,2.876,0Zm5.756,0a1.438,1.438,0,0,0-2.876,0V64.616a1.438,1.438,0,1,0,2.876,0Zm5.759,0a1.44,1.44,0,0,0-2.879,0V64.616a1.438,1.438,0,0,0,2.876,0l0-14.391Zm26.383,7.2a9.112,9.112,0,1,0-9.112,9.112A9.111,9.111,0,0,0,66.682,57.422Z" fill="url(#linear-gradient-2)"/>
    </g>
  </g>
</svg>
