<svg xmlns="http://www.w3.org/2000/svg" xmlns:xlink="http://www.w3.org/1999/xlink" width="130" height="130" viewBox="0 0 130 130">
  <defs>
    <linearGradient id="linear-gradient" x1="0.5" x2="0.5" y2="1" gradientUnits="objectBoundingBox">
      <stop offset="0" stop-color="#f77"/>
      <stop offset="1" stop-color="#f02e2e"/>
    </linearGradient>
  </defs>
  <g id="Group_17" data-name="Group 17" transform="translate(0.399)">
    <rect id="Rectangle_11" data-name="Rectangle 11" width="130" height="130" rx="30" transform="translate(-0.399)" fill="url(#linear-gradient)"/>
    <g id="Group_15" data-name="Group 15" transform="translate(26.745 28.09)">
      <g id="Group_2" data-name="Group 2" transform="translate(30.808 33.309)">
        <path id="Path_30" data-name="Path 30" d="M48.6,61.3a8.962,8.962,0,0,1,3.8-1.8v-.3A8.962,8.962,0,0,0,48.6,61Z" transform="translate(-40.298 -54.199)" fill="#fff"/>
        <path id="Path_31" data-name="Path 31" d="M47.4,56.8a10.194,10.194,0,0,0-7.1-2.6V64.3a9.929,9.929,0,0,1,7.1,2.6,10.194,10.194,0,0,1,7.1-2.6v-10A10.157,10.157,0,0,0,47.4,56.8Zm-6.3,6.8V63a9.929,9.929,0,0,1,6.1,2.7A12.029,12.029,0,0,0,41.1,63.6Zm0-.8v-.6a10.116,10.116,0,0,1,6.1,3.2A9.534,9.534,0,0,0,41.1,62.8Zm6.1,2.1a10.9,10.9,0,0,0-6.1-3.1V55a9.262,9.262,0,0,1,5.7,2.3l.4.4v7.2Zm6.4-1.3a11.169,11.169,0,0,0-6.1,2.1A9.929,9.929,0,0,1,53.6,63Zm0-.8a10.193,10.193,0,0,0-6.1,2.6,10.116,10.116,0,0,1,6.1-3.2Zm0-.9A10.626,10.626,0,0,0,47.5,65V57.9l.4-.4a9.262,9.262,0,0,1,5.7-2.3v6.7Z" transform="translate(-40.3 -54.2)" fill="#fff"/>
        <path id="Path_32" data-name="Path 32" d="M48.6,60a8.962,8.962,0,0,1,3.8-1.8v-.3a8.962,8.962,0,0,0-3.8,1.8Z" transform="translate(-40.298 -54.199)" fill="#fff"/>
        <path id="Path_33" data-name="Path 33" d="M48.6,58.8A8.962,8.962,0,0,1,52.4,57v-.3a8.962,8.962,0,0,0-3.8,1.8Z" transform="translate(-40.298 -54.199)" fill="#fff"/>
        <path id="Path_34" data-name="Path 34" d="M42.3,57a10.325,10.325,0,0,1,3.8,1.8v-.4a11.153,11.153,0,0,0-3.8-1.8Z" transform="translate(-40.299 -54.199)" fill="#fff"/>
        <path id="Path_35" data-name="Path 35" d="M48.6,62.5a8.962,8.962,0,0,1,3.8-1.8v-.3a8.962,8.962,0,0,0-3.8,1.8Z" transform="translate(-40.298 -54.198)" fill="#fff"/>
        <path id="Path_36" data-name="Path 36" d="M42.3,58.2A10.325,10.325,0,0,1,46.1,60v-.4a11.153,11.153,0,0,0-3.8-1.8Z" transform="translate(-40.299 -54.199)" fill="#fff"/>
        <path id="Path_37" data-name="Path 37" d="M42.3,60.7a10.325,10.325,0,0,1,3.8,1.8v-.4a11.153,11.153,0,0,0-3.8-1.8Z" transform="translate(-40.299 -54.198)" fill="#fff"/>
        <path id="Path_38" data-name="Path 38" d="M42.3,59.5a10.325,10.325,0,0,1,3.8,1.8v-.4a11.153,11.153,0,0,0-3.8-1.8Z" transform="translate(-40.299 -54.199)" fill="#fff"/>
      </g>
      <g id="Group_3" data-name="Group 3" transform="translate(0 0)">
        <path id="Path_39" data-name="Path 39" d="M35.307,93.919a25.678,25.678,0,0,0,9.6-1.9,10.919,10.919,0,0,1-1.7-1.3,25.652,25.652,0,0,1-9.5-20.005,19.274,19.274,0,0,1,.1-2.4v-.2a25.713,25.713,0,0,1,13.6-22.706,25.989,25.989,0,0,1,13.6,22.806v.2a25.8,25.8,0,0,0,12-19.4,19.273,19.273,0,0,0,.1-2.4v-.2h0a25.724,25.724,0,0,0-51.313-2.4c.7-.3,1.4-.7,2.1-1a26.64,26.64,0,0,1,9.4-1.8,25.411,25.411,0,0,1,14.1,4.2,25.815,25.815,0,0,0-12.1-3,25.537,25.537,0,0,0-11.4,2.7c-.7.4-1.5.8-2.2,1.2h0a25.727,25.727,0,0,0,13.6,47.612Z" transform="translate(-9.5 -20.9)" fill="#fff"/>
        <path id="Path_40" data-name="Path 40" d="M33.8,68.405A25.792,25.792,0,0,0,45.4,89.711c.6.4,1.3.8,2,1.2h0a25.747,25.747,0,0,0,37.81-22.706A25.488,25.488,0,0,0,75.111,47.8l-.3,2.4a25.567,25.567,0,0,1-13.8,18.2,25.669,25.669,0,0,1-27.207,0Z" transform="translate(-9.494 -20.893)" fill="#fff"/>
      </g>
    </g>
  </g>
</svg>
