<svg xmlns="http://www.w3.org/2000/svg" xmlns:xlink="http://www.w3.org/1999/xlink" width="130" height="130" viewBox="0 0 130 130">
  <defs>
    <linearGradient id="linear-gradient" x1="0.5" x2="0.5" y2="1" gradientUnits="objectBoundingBox">
      <stop offset="0" stop-color="#fff"/>
      <stop offset="1" stop-color="#ffdbbc"/>
    </linearGradient>
    <linearGradient id="linear-gradient-2" x1="0.5" x2="0.5" y2="1" gradientUnits="objectBoundingBox">
      <stop offset="0" stop-color="#ffb871"/>
      <stop offset="1" stop-color="#ff7334"/>
    </linearGradient>
  </defs>
  <g id="Group_864" data-name="Group 864" transform="translate(-0.118)">
    <rect id="Rectangle_12" data-name="Rectangle 12" width="130" height="130" rx="30" transform="translate(0.118)" fill="url(#linear-gradient)"/>
    <g id="mortarboard" transform="translate(21.692 -4.148)">
      <path id="Path_157" data-name="Path 157" d="M42.531,66.441a2.559,2.559,0,0,0,1.789,0l32.186-12.07V82.2a10.072,10.072,0,0,1,5.089,0V52.463l3.609-1.29a2.548,2.548,0,0,0,0-4.766L44.32,31.138a2.576,2.576,0,0,0-1.789,0L1.646,46.406a2.548,2.548,0,0,0,0,4.766Z" transform="translate(0 0)" fill="url(#linear-gradient-2)"/>
      <path id="Path_158" data-name="Path 158" d="M428.609,360.972c-4.351,0-7.634,5.47-7.634,12.723v5.089a2.543,2.543,0,0,0,2.545,2.545H433.7a2.543,2.543,0,0,0,2.545-2.545V373.7C436.243,366.442,432.96,360.972,428.609,360.972Z" transform="translate(-349.558 -274.012)" fill="url(#linear-gradient-2)"/>
      <path id="Path_159" data-name="Path 159" d="M145.282,215.859l-23.638,8.865a7.648,7.648,0,0,1-5.345,0l-23.656-8.87A48.386,48.386,0,0,0,90.971,230.3a2.548,2.548,0,0,0,3.487,2.363,37.161,37.161,0,0,1,11.782-2.363c5.37,0,11.081,4.488,11.138,4.535a2.557,2.557,0,0,0,3.176,0c1.576-1.262,6.648-4.533,11.133-4.533a37.16,37.16,0,0,1,11.782,2.363,2.548,2.548,0,0,0,3.487-2.363A48.746,48.746,0,0,0,145.282,215.859Z" transform="translate(-75.537 -153.517)" fill="url(#linear-gradient-2)"/>
    </g>
  </g>
</svg>
