<svg xmlns="http://www.w3.org/2000/svg" width="67" height="85" viewBox="0 0 67 85"><defs><linearGradient id="1g6la" x1="33.09" x2="33.98" y1="51.66" y2="84.71" gradientUnits="userSpaceOnUse"><stop offset="0" stop-color="#485dff"/><stop offset="1" stop-color="#417cff"/></linearGradient><linearGradient id="1g6lb" x1="13.55" x2="13.63" y1="10.15" y2="20.22" gradientUnits="userSpaceOnUse"><stop offset="0" stop-color="#485dff"/><stop offset="1" stop-color="#417cff"/></linearGradient><linearGradient id="1g6lc" x1="13.92" x2="13.16" y1="20.5" y2="26.38" gradientUnits="userSpaceOnUse"><stop offset="0" stop-color="#485dff"/><stop offset="1" stop-color="#417cff"/></linearGradient><linearGradient id="1g6ld" x1="13.9" x2="13.28" y1="27.65" y2="29.04" gradientUnits="userSpaceOnUse"><stop offset="0" stop-color="#485dff"/><stop offset="1" stop-color="#417cff"/></linearGradient><linearGradient id="1g6le" x1="12" x2="12.25" y1="16.29" y2="58.84" gradientUnits="userSpaceOnUse"><stop offset="0" stop-color="#485dff"/><stop offset="1" stop-color="#417cff"/></linearGradient><linearGradient id="1g6lf" x1="13.8" x2="13.32" y1="26.73" y2="27.05" gradientUnits="userSpaceOnUse"><stop offset="0" stop-color="#485dff"/><stop offset="1" stop-color="#417cff"/></linearGradient><linearGradient id="1g6lg" x1="53.45" x2="53.52" y1="15.19" y2="25.26" gradientUnits="userSpaceOnUse"><stop offset="0" stop-color="#485dff"/><stop offset="1" stop-color="#417cff"/></linearGradient><linearGradient id="1g6lh" x1="53.92" x2="53.16" y1="25.54" y2="31.42" gradientUnits="userSpaceOnUse"><stop offset="0" stop-color="#485dff"/><stop offset="1" stop-color="#417cff"/></linearGradient><linearGradient id="1g6li" x1="53.79" x2="53.18" y1="32.69" y2="34.08" gradientUnits="userSpaceOnUse"><stop offset="0" stop-color="#485dff"/><stop offset="1" stop-color="#417cff"/></linearGradient><linearGradient id="1g6lj" x1="54.82" x2="55.07" y1="21.33" y2="63.88" gradientUnits="userSpaceOnUse"><stop offset="0" stop-color="#485dff"/><stop offset="1" stop-color="#417cff"/></linearGradient><linearGradient id="1g6lk" x1="53.76" x2="53.28" y1="31.77" y2="32.09" gradientUnits="userSpaceOnUse"><stop offset="0" stop-color="#485dff"/><stop offset="1" stop-color="#417cff"/></linearGradient><linearGradient id="1g6ll" x1="33.34" x2="33.75" y1=".57" y2="10.98" gradientUnits="userSpaceOnUse"><stop offset="0" stop-color="#485dff"/><stop offset="1" stop-color="#417cff"/></linearGradient><linearGradient id="1g6lm" x1="33.88" x2="33.53" y1="19.59" y2="21.24" gradientUnits="userSpaceOnUse"><stop offset="0" stop-color="#485dff"/><stop offset="1" stop-color="#417cff"/></linearGradient><linearGradient id="1g6ln" x1="33.59" x2="33.64" y1="11.26" y2="18.07" gradientUnits="userSpaceOnUse"><stop offset="0" stop-color="#485dff"/><stop offset="1" stop-color="#417cff"/></linearGradient><linearGradient id="1g6lo" x1="33.52" x2="33.9" y1="6.91" y2="50.86" gradientUnits="userSpaceOnUse"><stop offset="0" stop-color="#485dff"/><stop offset="1" stop-color="#417cff"/></linearGradient><linearGradient id="1g6lp" x1="33.76" x2="33.57" y1="18.49" y2="18.87" gradientUnits="userSpaceOnUse"><stop offset="0" stop-color="#485dff"/><stop offset="1" stop-color="#417cff"/></linearGradient></defs><g><g><g><g><path fill="url(#1g6la)" d="M43.156 51.658h-.002v12.92l18.825-.002V84.71H5.093v-25.24l18.866.003v-7.818zM18.698 77.771v.001h.001v-2.311h-4.531v-.038l1.107-.925c1.742-1.554 3.203-3.164 3.203-5.179 0-2.185-1.498-3.776-4.218-3.776-1.628 0-3.033.555-3.94 1.241l.796 2.018c.629-.48 1.536-1 2.572-1 1.386 0 1.977.777 1.977 1.757-.037 1.403-1.314 2.754-3.938 5.105l-1.555 1.403v1.704zm35.484-.435c0 .904-.737 1.61-2.199 1.61-1.147 0-2.293-.481-2.794-.74l-.572 2.108c.7.444 2.014.852 3.567.852 3.055 0 4.923-1.556 4.925-3.686 0-1.567-1.167-2.657-2.612-2.919v-.038c1.482-.514 2.202-1.516 2.202-2.79 0-1.645-1.425-2.997-3.995-2.997-1.556 0-2.999.443-3.72.906l.576 2.036c.497-.298 1.532-.72 2.513-.72 1.185 0 1.777.538 1.777 1.255 0 1.015-1.203 1.369-2.146 1.386h-1.09v2.018h1.146c1.236 0 2.42.536 2.422 1.72zm-19.67-21.634H32.18l-3.182 1.478.462 2.113 2.296-1.094h.035v9.532h2.722z"/></g><g><path fill="url(#1g6lb)" d="M13.588 20.224a5.034 5.034 0 0 1-5.038-5.039 5.034 5.034 0 0 1 5.038-5.038 5.034 5.034 0 0 1 5.039 5.038 5.034 5.034 0 0 1-5.039 5.04z"/></g><g><path fill="url(#1g6lc)" d="M14.843 20.517l-1.255 1.263-1.215-1.276c-.006 0-.009 0-.013.002-.371.249-.877.497-1.445.72l3.056 5.155h.29l-.619-1.048 2.515-4.284a5.607 5.607 0 0 0-1.314-.532z"/></g><g><path fill="url(#1g6ld)" d="M13.588 29.038a.692.692 0 1 1-.001-1.383.692.692 0 0 1 .001 1.383z"/></g><g><path fill="url(#1g6le)" d="M24.229 35.512c-1.133-7.706-2.832-11.153-6.86-13.783l-2.708 4.664v1.008h-.228a1.276 1.276 0 0 1-.846 2.236 1.282 1.282 0 0 1-1.282-1.28c0-.381.17-.72.434-.956h-.289v-.862l-2.883-4.867c-1.41.383-2.876.536-3.6.154-1.036-.551-1.739-1.864-2.082-3.905a1.956 1.956 0 0 0-3.858.652c.557 3.302 1.94 5.56 4.11 6.71.999.53 2.12.793 3.336.793a9.49 9.49 0 0 0 .958-.064V36.02c0 .6.134 1.188.362 1.69l-.01 18.821a2.312 2.312 0 1 0 4.623 0l-.001-16.072.327.002v16.07a2.313 2.313 0 0 0 4.624 0l-.006-18.813c.25-.519.394-1.443.394-2.07v-6.365c.625 1.562 1.16 3.708 1.613 6.798a1.957 1.957 0 0 0 3.871-.569z"/></g><g><path fill="url(#1g6lf)" d="M14.316 26.729h-.142l-.02.014h-1.358v.311h1.52z"/></g><g><path fill="url(#1g6lg)" d="M53.486 15.187a5.038 5.038 0 1 1 0 10.076 5.038 5.038 0 0 1 0-10.076z"/></g><g><path fill="url(#1g6lh)" d="M54.714 25.545c-.004-.002-.007-.002-.013-.002l-1.215 1.276-1.255-1.264a5.668 5.668 0 0 0-1.313.532l2.515 4.282-.619 1.048h.29l3.057-5.155c-.57-.22-1.074-.47-1.447-.717z"/></g><g><path fill="url(#1g6li)" d="M53.485 32.693a.692.692 0 1 1-.692.692c0-.383.311-.692.692-.692z"/></g><g><path fill="url(#1g6lj)" d="M65.444 21.357a1.952 1.952 0 0 0-2.253 1.602c-.345 2.042-1.047 3.354-2.083 3.904-.724.383-2.19.23-3.6-.153l-2.883 4.866v.864h-.295a1.274 1.274 0 0 1-.846 2.235c-.706 0-1.28-.573-1.28-1.281 0-.38.168-.72.434-.954h-.228V31.43l-2.707-4.664c-4.03 2.628-5.729 6.077-6.862 13.783a1.957 1.957 0 0 0 3.873.567c.451-3.088.987-5.234 1.614-6.796v6.364c0 .628.108 1.576.358 2.094l-.006 18.79a2.312 2.312 0 0 0 4.624 0v-16.07h.327l-.001 16.07a2.31 2.31 0 0 0 4.622 0l-.009-18.789c.229-.5.395-1.473.395-2.073V31.05c.324.034.648.062.963.062 1.215 0 2.335-.264 3.336-.795 2.169-1.148 3.552-3.406 4.11-6.71a1.955 1.955 0 0 0-1.603-2.251z"/></g><g><path fill="url(#1g6lk)" d="M54.278 31.782h-1.36l-.019-.015h-.142v.326h1.52z"/></g><g><g><path fill="url(#1g6ll)" d="M33.549 10.977a5.203 5.203 0 0 0 5.203-5.205 5.203 5.203 0 1 0-10.407 0 5.205 5.205 0 0 0 5.204 5.205z"/></g><g><path fill="url(#1g6lm)" d="M33.706 21.238a.823.823 0 1 1 0-1.649.824.824 0 1 1 0 1.649z"/></g><g><path fill="url(#1g6ln)" d="M34.845 11.278l-1.297 1.305-1.255-1.318c-.007 0-.01 0-.013.003-.282.067-.865.433-1.692.777l3.57 6.028h.348l-.739-1.247 2.874-4.895c-.876-.309-1.562-.596-1.796-.653z"/></g><g><path fill="url(#1g6lo)" d="M46.21 7.035a2.03 2.03 0 0 0-2.329 1.657c-.323 1.925-.93 3.175-1.8 3.717-.886.585-2.394.399-3.813.026l-3.282 5.653v1.201h-.272c.316.28.522.684.522 1.138a1.53 1.53 0 0 1-1.527 1.527 1.53 1.53 0 0 1-1.529-1.527c0-.455.205-.858.52-1.138h-.35v-1.028l-3.387-5.717a7.167 7.167 0 0 1-3.63-.231c-.871-.54-1.477-1.792-1.801-3.716a2.021 2.021 0 0 0-3.986.673c.53 3.162 1.727 5.277 3.653 6.477 1.207.748 2.534 1.025 3.89 1.025.376 0 .756-.026 1.134-.066V27.29c0 .679.077 1.23.356 1.786l.001 19.395a2.389 2.389 0 1 0 4.777 0l-.002-16.61.34.001v16.61a2.388 2.388 0 1 0 4.774 0l-.018-19.406c.215-.5.425-1.182.425-1.774V16.766c.482.06.964.103 1.443.103 1.355 0 2.684-.279 3.893-1.027 1.925-1.195 3.122-3.314 3.656-6.477a2.023 2.023 0 0 0-1.659-2.33z"/></g><g><path fill="url(#1g6lp)" d="M34.571 18.486h-.168l-.025.016H32.76v.372h1.81z"/></g></g></g></g></g></svg>