<svg xmlns="http://www.w3.org/2000/svg" width="64" height="81" viewBox="0 0 64 81"><g><g><g><path fill="#fff" d="M15 0h36c.552 0 1 .447 1 1v3c0 .553-.448 1-1 1H15a1 1 0 0 1-1.001-1V1a1 1 0 0 1 1-1z"/></g><g><path fill="#fff" d="M33.878 18.656l-.92-1.864-.919 1.863c-.184.373-.54.632-.951.691l-2.055.299 1.487 1.449c.297.29.434.708.364 1.118l-.352 2.047 1.839-.966a1.264 1.264 0 0 1 1.174 0l1.84.967-.351-2.048c-.07-.41.065-.827.362-1.117l1.488-1.45-2.055-.299a1.262 1.262 0 0 1-.95-.69z"/></g><g><path fill="#fff" d="M32.958 36.672c-8.37 0-15.155-6.785-15.155-15.155V7.623h30.31v13.893c0 8.37-6.785 15.155-15.155 15.155zm7.52-17.005a1.263 1.263 0 0 0-.7-2.154l-3.929-.57-1.759-3.563a1.314 1.314 0 0 0-2.264 0l-1.758 3.562-3.931.57a1.263 1.263 0 0 0-.7 2.156l2.844 2.772-.671 3.915a1.263 1.263 0 0 0 1.833 1.331l3.515-1.848 3.517 1.848a1.263 1.263 0 0 0 1.831-1.331l-.671-3.915 2.844-2.773z"/></g><g><path fill="#fff" d="M50.64 13.939h1.262v10.103a5.027 5.027 0 0 1-2.702 4.471 18.345 18.345 0 0 1-1.718 3.082 7.589 7.589 0 0 0 6.946-7.553V12.676a1.267 1.267 0 0 0-1.263-1.263H50.64z"/></g><g><path fill="#fff" d="M18.434 31.595a18.331 18.331 0 0 1-1.717-3.082 5.026 5.026 0 0 1-2.703-4.47V13.938h1.263v-2.526H12.75a1.267 1.267 0 0 0-1.263 1.263v11.366a7.589 7.589 0 0 0 6.946 7.553z"/></g><g><path fill="#fff" d="M32.958 39.198a17.48 17.48 0 0 1-6.315-1.175v4.964a3.49 3.49 0 0 1-.227 1.262H39.5a3.499 3.499 0 0 1-.227-1.262v-4.964a17.48 17.48 0 0 1-6.315 1.175z"/></g><g><path fill="#fff" d="M47.95 50.564a5.042 5.042 0 0 0-4.888-3.789H22.854a5.042 5.042 0 0 0-4.887 3.789z"/></g><g><path fill="#fff" d="M50.64 75.823h11.366a1.267 1.267 0 0 0 1.263-1.263v-3.789h-12.63z"/></g><g><path fill="#fff" d="M62.006 53.09H11.488C5.21 53.09.122 58.179.122 64.457c0 6.277 5.088 11.366 11.366 11.366h21.47v-5.052h-21.47a6.315 6.315 0 1 1 0-12.63h51.78v-3.788a1.267 1.267 0 0 0-1.262-1.263z"/></g><g><path fill="#fff" d="M35.484 79.612a1.262 1.262 0 0 0 2.02 1.01l4.295-3.22 4.294 3.22a1.262 1.262 0 0 0 2.02-1.01V65.719h-12.63z"/></g><g><path fill="#fff" d="M51 65h8v3h-8z"/></g><g><path fill="#fff" d="M11.488 63.194H59.48v-2.526H11.488a3.789 3.789 0 1 0 0 7.577h21.47V65.72h-21.47a1.263 1.263 0 1 1 0-2.525z"/></g></g></g></svg>