<svg xmlns="http://www.w3.org/2000/svg" width="70" height="70" viewBox="0 0 70 70"><g><g><g><path fill="#fff" d="M69.596 62.89v5.313c0 .733-.595 1.328-1.328 1.328H1.86a1.328 1.328 0 0 1-1.328-1.328v-5.312c0-.734.595-1.329 1.328-1.329H3.19v-3.984c0-.734.595-1.328 1.329-1.328V44.297H1.86a1.328 1.328 0 0 1-1.168-.638 1.327 1.327 0 0 1 0-1.328l7.968-14.61a1.329 1.329 0 0 1 1.17-.69h9.296v-7.265l-3.36 1.806a1.328 1.328 0 1 1-1.248-2.337l5.312-2.829 13.906-7.438V1.797c0-.734.594-1.328 1.328-1.328h7.968c.734 0 1.329.594 1.329 1.328V5.78c0 .734-.595 1.328-1.329 1.328h-6.64v1.86l13.905 7.424 5.313 2.829a1.328 1.328 0 1 1-1.249 2.337l-3.36-1.793v7.265h9.297c.474.006.91.264 1.142.677l7.969 14.61c.237.41.237.917 0 1.328-.24.404-.674.65-1.142.65H65.61V56.25c.734 0 1.328.594 1.328 1.328v3.984h1.329c.733 0 1.328.595 1.328 1.329zM21.783 27.032h26.563v-8.673l-13.281-7.092-13.282 7.092zm0 34.531h6.64v-13.28c0-.735.596-1.329 1.329-1.329h10.625c.734 0 1.328.594 1.328 1.328v13.281h6.64V43.7l-13.28-8.447L21.783 43.7zm41.172-17.265H51.002V56.25h11.953zM7.174 56.25h11.953V44.297H7.174z"/></g><g><path fill="#fff" d="M35.065 25.703a5.308 5.308 0 0 1-5.313-5.312 5.308 5.308 0 0 1 5.313-5.313 5.307 5.307 0 0 1 5.312 5.313 5.307 5.307 0 0 1-5.312 5.312z"/></g></g></g></svg>