<svg xmlns="http://www.w3.org/2000/svg" width="64" height="72" viewBox="0 0 64 72"><defs><linearGradient id="kfc0a" x1="39.89" x2="40.53" y1="39.11" y2="52.42" gradientUnits="userSpaceOnUse"><stop offset="0" stop-color="#727dff"/><stop offset="1" stop-color="#3d1bad"/></linearGradient><linearGradient id="kfc0b" x1="40.11" x2="40.32" y1="22.31" y2="33.26" gradientUnits="userSpaceOnUse"><stop offset="0" stop-color="#727dff"/><stop offset="1" stop-color="#3d1bad"/></linearGradient><linearGradient id="kfc0c" x1="40.49" x2="39.93" y1="35.95" y2="40.11" gradientUnits="userSpaceOnUse"><stop offset="0" stop-color="#727dff"/><stop offset="1" stop-color="#3d1bad"/></linearGradient><linearGradient id="kfc0d" x1="31.52" x2="32.48" y1=".42" y2="71.58" gradientUnits="userSpaceOnUse"><stop offset="0" stop-color="#727dff"/><stop offset="1" stop-color="#3d1bad"/></linearGradient><linearGradient id="kfc0e" x1="5.52" x2="6.47" y1="23.68" y2="38.74" gradientUnits="userSpaceOnUse"><stop offset="0" stop-color="#727dff"/><stop offset="1" stop-color="#3d1bad"/></linearGradient><linearGradient id="kfc0f" x1="5.52" x2="6.47" y1="41.47" y2="56.53" gradientUnits="userSpaceOnUse"><stop offset="0" stop-color="#727dff"/><stop offset="1" stop-color="#3d1bad"/></linearGradient></defs><g><g><g><path fill="url(#kfc0a)" d="M40.211 42.843a5.486 5.486 0 0 1-5.187-3.736l-7.13 2.025v11.29H32V45.58h2.737v6.842h10.948V45.58h2.737v6.842h4.106v-11.29l-7.13-2.025a5.487 5.487 0 0 1-5.187 3.736z"/></g><g><path fill="url(#kfc0b)" d="M37.775 33.044c.338.142.7.216 1.068.219h2.737c.366-.003.73-.077 1.067-.22a2.755 2.755 0 0 0 1.67-2.517v-5.474a2.746 2.746 0 0 0-2.737-2.738h-2.737a2.746 2.746 0 0 0-2.738 2.738v5.474a2.755 2.755 0 0 0 1.67 2.518z"/></g><g><path fill="url(#kfc0c)" d="M41.58 36h-2.737a4.721 4.721 0 0 1-.767-.055l-.588 1.629a2.73 2.73 0 0 0 5.447 0l-.59-1.629c-.253.04-.509.058-.765.055z"/></g><g><path fill="url(#kfc0d)" d="M59.37.418a4.117 4.117 0 0 1 4.106 4.105v62.953a4.117 4.117 0 0 1-4.106 4.106H7.366a4.118 4.118 0 0 1-4.106-4.106v-8.211h2.737v8.211a1.373 1.373 0 0 0 1.369 1.369h9.58V3.155h-9.58a1.373 1.373 0 0 0-1.369 1.368V18.21h5.475v2.737H.523v-2.737H3.26V4.523A4.118 4.118 0 0 1 7.366.418zm-4.105 39.687c0-.612-.409-1.15-.999-1.314l-8.895-2.545-.493-1.355a5.45 5.45 0 0 0 2.176-4.365v-5.474a5.472 5.472 0 0 0-5.474-5.475h-2.737a5.473 5.473 0 0 0-5.475 5.475v5.474a5.452 5.452 0 0 0 2.176 4.365l-.492 1.355-8.896 2.545c-.59.164-.999.702-.999 1.314v13.686a1.373 1.373 0 0 0 1.369 1.368h27.37a1.372 1.372 0 0 0 1.369-1.368z"/></g><g><path fill="url(#kfc0e)" d="M11.472 36H5.997V23.683H3.26V36H.523v2.737h10.949z"/></g><g><path fill="url(#kfc0f)" d="M11.472 53.791H5.997V41.474H3.26V53.79H.523v2.737h10.949z"/></g></g></g></svg>