<svg xmlns="http://www.w3.org/2000/svg" width="75" height="75" viewBox="0 0 75 75"><defs><linearGradient id="bsdua" x1="37" x2="37.84" y1=".11" y2="74.78" gradientUnits="userSpaceOnUse"><stop offset="0" stop-color="#77e55b"/><stop offset="1" stop-color="#30af92"/></linearGradient></defs><g><g><g><path fill="url(#bsdua)" d="M74.84 31.602v34.54a8.638 8.638 0 0 1-8.636 8.636H8.634A8.638 8.638 0 0 1 0 66.143v-34.54c0-3.967 2.69-7.273 6.33-8.287-.006-.12-.034-.233-.034-.352a5.218 5.218 0 0 1 5.218-5.219c.685 0 1.335.141 1.935.38L63.5 4.255v-.003a4.138 4.138 0 1 1 4.139 4.139c-1.502 0-2.754-.838-3.48-2.035l-47.93 14.41c.315.669.5 1.41.5 2.198h49.472c4.77 0 8.638 3.872 8.638 8.638zm-8.158 25.906a9.111 9.111 0 0 0-9.112-9.113 9.112 9.112 0 0 0-9.113 9.113 9.112 9.112 0 0 0 9.113 9.112 9.111 9.111 0 0 0 9.112-9.112zm-17.748-17.27h17.27V28.722h-17.27zm-40.3-11.515v11.514h37.42V28.723zm2.88 21.587a1.438 1.438 0 1 0-2.876 0v14.391a1.438 1.438 0 1 0 2.876 0zm5.756 0a1.438 1.438 0 1 0-2.876 0v14.391a1.438 1.438 0 1 0 2.876 0zm4.32-1.438a1.44 1.44 0 0 0-1.44 1.438v14.391a1.438 1.438 0 1 0 2.876 0l.003-14.39c0-.795-.644-1.439-1.438-1.439zm7.195 1.438a1.438 1.438 0 1 0-2.877 0v14.391a1.438 1.438 0 1 0 2.877 0zm5.755 0a1.438 1.438 0 1 0-2.876 0v14.391a1.438 1.438 0 1 0 2.876 0zm4.32-1.438a1.44 1.44 0 0 0-1.44 1.438v14.391a1.438 1.438 0 1 0 2.876 0l.003-14.39c0-.795-.643-1.439-1.438-1.439zm23.928 8.636a5.218 5.218 0 1 1-10.437 0 5.218 5.218 0 0 1 10.437 0z"/></g></g></g></svg>