<svg xmlns="http://www.w3.org/2000/svg" width="76" height="73" viewBox="0 0 76 73"><g><g><g><g><path fill="#fff" d="M39.254 40.5c1-.8 2.3-1.5 3.8-1.8v-.3c-1.5.3-2.8 1-3.8 1.8z"/></g><g><path fill="#fff" d="M45.155 33.499V43.5c-3 0-5.601 1.1-7.101 2.6-1.501-1.6-4.202-2.6-7.103-2.6V33.398c3.001 0 5.602 1.1 7.103 2.601 1.5-1.5 4.1-2.5 7.101-2.5zM37.853 44.9c-2.6-2.5-5.801-2.7-6.101-2.7v.6c2.3.2 4.5.9 6.101 2.1zm0-.3c-2.4-2.7-5.501-3.1-6.101-3.2v.6c.3 0 3.5.1 6.101 2.6zm0-.5V36.9l-.4-.4c-1.3-1.3-3.4-2.1-5.701-2.3V41c.5.1 3.6.5 6.101 3.101zm6.402-1.9c-.3 0-3.501.2-6.102 2.7 1.6-1.2 3.802-2 6.102-2.1zm0-.8c-.6.1-3.7.5-6.102 3.2 2.601-2.4 5.802-2.6 6.102-2.6zm0-.3v-6.702c-2.3.2-4.401 1-5.701 2.3l-.4.4v7.102c2.5-2.6 5.5-3 6.1-3.1z"/></g><g><path fill="#fff" d="M39.254 39.2c1-.8 2.3-1.5 3.8-1.8v-.3c-1.5.3-2.8 1-3.8 1.8z"/></g><g><path fill="#fff" d="M39.254 38c1-.8 2.3-1.5 3.8-1.8v-.301c-1.5.3-2.8 1-3.8 1.8z"/></g><g><path fill="#fff" d="M32.952 36.2c1.5.4 2.801 1 3.8 1.8v-.4c-.999-.8-2.4-1.4-3.8-1.801z"/></g><g><path fill="#fff" d="M39.254 41.7c1-.8 2.3-1.5 3.8-1.8v-.3c-1.5.3-2.8 1-3.8 1.8z"/></g><g><path fill="#fff" d="M32.952 37.4c1.5.4 2.801 1 3.8 1.8v-.4c-.999-.8-2.4-1.4-3.8-1.8z"/></g><g><path fill="#fff" d="M32.952 39.9c1.5.4 2.801 1 3.8 1.8v-.4c-.999-.8-2.4-1.4-3.8-1.8z"/></g><g><path fill="#fff" d="M32.952 38.7c1.5.4 2.801 1 3.8 1.8v-.4c-.999-.8-2.4-1.4-3.8-1.8z"/></g></g><g><g><path fill="#fff" d="M25.95 73.109c3.401 0 6.602-.7 9.603-1.9-.6-.401-1.2-.801-1.7-1.301-5.802-4.701-9.503-11.903-9.503-20.005 0-.8 0-1.6.1-2.4v-.201c0-9.803 5.501-18.405 13.604-22.706 8.102 4.401 13.603 13.004 13.603 22.806v.2c6.602-4.1 11.203-11.203 12.003-19.405.1-.8.1-1.6.1-2.4v-.2C63.66 11.492 52.157.09 38.054.09 24.65.09 13.747 10.193 12.447 23.196c.7-.3 1.4-.7 2.1-1 2.901-1.1 6.102-1.8 9.403-1.8 5.201 0 10.002 1.5 14.104 4.2-3.601-1.9-7.703-3-12.104-3-4.1 0-8.002 1-11.402 2.7-.7.4-1.501.8-2.201 1.2C5.045 30.098.144 38.2.144 47.402c0 14.204 11.603 25.707 25.806 25.707z"/></g><g><path fill="#fff" d="M24.45 47.602c.1 8.902 4.701 16.805 11.603 21.306.6.4 1.3.8 2 1.2h-.1.1c3.601 1.9 7.702 3 12.103 3 14.204 0 25.707-11.502 25.707-25.706 0-8.302-3.9-15.704-10.102-20.405l-.3 2.4a25.569 25.569 0 0 1-13.804 18.205c-3.901 2.5-8.602 3.901-13.604 3.901-5 0-9.702-1.4-13.603-3.9z"/></g></g></g></g></svg>