<svg xmlns="http://www.w3.org/2000/svg" width="88" height="77" viewBox="0 0 88 77"><defs><linearGradient id="8kmwa" x1="43.8" x2="44.65" y1=".58" y2="51.8" gradientUnits="userSpaceOnUse"><stop offset="0" stop-color="#ffb871"/><stop offset="1" stop-color="#ff7334"/></linearGradient><linearGradient id="8kmwb" x1="80.22" x2="79.48" y1="56.56" y2="76.92" gradientUnits="userSpaceOnUse"><stop offset="0" stop-color="#ffb871"/><stop offset="1" stop-color="#ff7334"/></linearGradient><linearGradient id="8kmwc" x1="44.23" x2="44.22" y1="31.95" y2="51.47" gradientUnits="userSpaceOnUse"><stop offset="0" stop-color="#ffb871"/><stop offset="1" stop-color="#ff7334"/></linearGradient></defs><g><g><g><path fill="url(#8kmwa)" d="M43.33 36.044a2.557 2.557 0 0 0 1.79 0l32.185-12.07v27.827a10.385 10.385 0 0 1 2.545-.327c.88 0 1.727.121 2.545.327V22.066l3.608-1.29c2.193-.824 2.197-3.94 0-4.766L45.12.742a2.577 2.577 0 0 0-1.79 0L2.446 16.01c-2.192.824-2.196 3.94 0 4.766z"/></g><g><path fill="url(#8kmwb)" d="M79.85 56.564c-4.351 0-7.634 5.469-7.634 12.723v5.09a2.543 2.543 0 0 0 2.544 2.544h10.18a2.543 2.543 0 0 0 2.544-2.545v-5.089c0-7.254-3.283-12.723-7.634-12.723z"/></g><g><path fill="url(#8kmwc)" d="M70.544 31.946l-23.638 8.865a7.65 7.65 0 0 1-5.345.005l-23.657-8.87c-2.122 7.778-1.582 12.884-1.671 14.439 0 1.8 1.83 3.029 3.486 2.363.06-.022 6.01-2.363 11.782-2.363 5.37 0 11.08 4.488 11.138 4.535.91.724 2.234.747 3.176-.003 1.575-1.262 6.647-4.533 11.133-4.533 5.772 0 11.722 2.341 11.781 2.364 1.653.664 3.487-.56 3.487-2.364-.085-1.491.438-6.706-1.672-14.438z"/></g></g></g></svg>