<svg xmlns="http://www.w3.org/2000/svg" width="77" height="69" viewBox="0 0 77 69"><defs><linearGradient id="h8j7a" x1="70.6" x2="70.64" y1="57.54" y2="67.58" gradientUnits="userSpaceOnUse"><stop offset="0" stop-color="#ed3138"/><stop offset="1" stop-color="#ff7b7b"/></linearGradient><linearGradient id="h8j7b" x1="38.65" x2="38.43" y1=".71" y2="68.37" gradientUnits="userSpaceOnUse"><stop offset="0" stop-color="#ed3138"/><stop offset="1" stop-color="#ff7b7b"/></linearGradient></defs><g><g><g><path fill="url(#h8j7a)" d="M65.601 67.58l10.04-10.04h-10.04z"/></g><g><path fill="url(#h8j7b)" d="M69.66 8.826a6.769 6.769 0 0 1 6.767 6.766v39.241H64.248a1.357 1.357 0 0 0-1.353 1.353v12.18H7.415A6.769 6.769 0 0 1 .65 61.598V15.592a6.769 6.769 0 0 1 6.766-6.766h5.412V6.12a5.413 5.413 0 1 1 10.826 0v2.706h9.472V6.12a5.413 5.413 0 1 1 10.825 0v2.706h9.472V6.12a5.413 5.413 0 1 1 10.825 0v2.706zm-13.53 0h5.412V6.12a2.706 2.706 0 1 0-5.413 0zm-20.298 0h5.413V6.12a2.706 2.706 0 1 0-5.413 0zm-20.297 0h5.412V6.12a2.706 2.706 0 1 0-5.412 0zm1.353 44.654h-5.413v5.413h5.413zm0-10.825h-5.413v5.413h5.413zm0-10.825h-5.413v5.412h5.413zm12.178 21.65h-5.412v5.413h5.412zm0-10.825h-5.412v5.413h5.412zm0-10.825h-5.412v5.412h5.412zm12.179 21.65h-5.413v5.413h5.413zm0-10.825h-5.413v5.413h5.413zm0-10.825h-5.413v5.412h5.413zm12.178 21.65h-5.412v5.413h5.412zm0-10.825h-5.412v5.413h5.412zm0-10.825h-5.412v5.412h5.412zm12.178 10.825H60.19v5.413h5.412zm0-10.825H60.19v5.412h5.412zm8.12-16.238a4.071 4.071 0 0 0-4.06-4.06H56.129v2.707a2.706 2.706 0 1 0 5.413 0h2.706a5.413 5.413 0 0 1-10.825 0v-2.707h-17.59v2.707a2.706 2.706 0 1 0 5.412 0h2.706a5.413 5.413 0 0 1-10.825 0v-2.707H15.535v2.707a2.706 2.706 0 1 0 5.412 0h2.707a5.413 5.413 0 0 1-10.826 0v-2.707H7.416a4.071 4.071 0 0 0-4.06 4.06v6.766H73.72z"/></g></g></g></svg>