<svg xmlns="http://www.w3.org/2000/svg" width="67" height="68" viewBox="0 0 67 68"><g><g><g><g><g><path fill="#fff" d="M11 13h33v3H11z"/></g></g></g><g><g><g><path fill="#fff" d="M32 28h11v12H32z"/></g></g></g><g><g><g><path fill="#fff" d="M66.793 10.589v49.124c0 4.312-3.506 7.818-7.818 7.818H7.895c-4.311 0-7.817-3.506-7.817-7.818V3.031c0-1.08.874-2.215 1.954-2.215h51.079c1.08 0 1.955.875 1.955 1.955v5.863h9.772c1.08 0 1.955.875 1.955 1.955zm-21.5 45.215H9.85c-2.587 0-2.576 3.91 0 3.91h35.443c2.587 0 2.576-3.91 0-3.91zm0-7.818H9.85c-2.587 0-2.576 3.91 0 3.91h35.443c2.587 0 2.576-3.91 0-3.91zM9.85 35.998h11.727c2.587 0 2.577-3.909 0-3.909H9.85c-2.587 0-2.576 3.91 0 3.91zm0-7.818h11.727c2.587 0 2.577-3.91 0-3.91H9.85c-2.587 0-2.576 3.91 0 3.91zm0 15.636h11.727c2.587 0 2.577-3.909 0-3.909H9.85c-2.587 0-2.576 3.91 0 3.91zm37.397-17.59c0-1.081-.874-1.955-1.954-1.955H29.656c-1.08 0-1.954.874-1.954 1.954v15.637c0 1.08.874 1.954 1.954 1.954h15.637c1.08 0 1.954-.874 1.954-1.954zm0-15.637c0-1.08-.874-1.955-1.954-1.955H9.85c-1.08 0-1.954.875-1.954 1.955v7.818c0 1.08.874 1.955 1.954 1.955h35.443c1.08 0 1.954-.875 1.954-1.955zm15.637 1.955h-7.818v47.17c0 5.165 7.818 5.164 7.818 0z"/></g></g></g></g></g></svg>