<svg xmlns="http://www.w3.org/2000/svg" width="68" height="81" viewBox="0 0 68 81"><g><g><path fill="#fff" d="M63.624 25.705H39.15v8.1h18.723c.268 0 .669.136.802.27l8.025 6.752c.4.27.534.675.534 1.08s-.267.81-.534 1.08l-8.025 6.752c-.133.135-.534.27-.802.27H39.15v22.954c3.745 0 6.687 2.97 6.687 6.75 0 .81-.535 1.35-1.337 1.35H25.776c-.802 0-1.337-.54-1.337-1.35 0-3.78 2.942-6.75 6.687-6.75V50.009H3.977c-2.006 0-3.61-1.62-3.61-3.51v-9.047c0-2.025 1.604-3.646 3.61-3.646h27.149v-8.101H9.728c-.268 0-.669-.135-.802-.27L.9 18.684c-.4-.27-.534-.675-.534-1.08 0-.406.133-.81.534-1.08l8.025-6.752c.133-.135.534-.27.802-.27h21.398v-5.4c0-2.296 1.738-4.051 4.012-4.051 2.274 0 4.012 1.755 4.012 4.05v5.4h24.474c2.006 0 3.61 1.622 3.61 3.647v8.911c0 2.025-1.604 3.646-3.61 3.646zM44.5 17.603c0 .81.534 1.35 1.337 1.35h12.036c.802 0 1.338-.54 1.338-1.35s-.536-1.35-1.338-1.35H45.837c-.803 0-1.337.54-1.337 1.35zm-18.724 0c0-.81-.534-1.35-1.337-1.35H11.066c-.803 0-1.338.54-1.338 1.35s.535 1.35 1.338 1.35h13.373c.803 0 1.337-.54 1.337-1.35zm17.386 24.304c0 .81.535 1.35 1.338 1.35h12.036c.802 0 1.337-.54 1.337-1.35s-.535-1.35-1.337-1.35H44.5c-.803 0-1.338.54-1.338 1.35zM33.801 9.502h2.674v-5.4c0-.811-.535-1.351-1.337-1.351-.803 0-1.337.54-1.337 1.35zm-9.362 32.405c0-.81-.535-1.35-1.338-1.35H9.728c-.802 0-1.337.54-1.337 1.35s.535 1.35 1.337 1.35h13.373c.803 0 1.338-.54 1.338-1.35zm12.036 8.102h-2.674v22.954h2.674zm1.338-8.101c0-.81-.535-1.35-1.338-1.35h-5.35c-.801 0-1.336.54-1.336 1.35s.535 1.35 1.337 1.35h5.35c.802 0 1.337-.54 1.337-1.35zm-1.338-8.102v-8.101h-2.674v8.101zm2.675-16.203c0-.81-.535-1.35-1.337-1.35h-5.35c-.802 0-1.337.54-1.337 1.35s.535 1.35 1.337 1.35h5.35c.802 0 1.337-.54 1.337-1.35z"/></g></g></svg>